<?xml version="1.0" encoding="utf-8"?>
<!-- Generator: Adobe Illustrator 23.1.1, SVG Export Plug-In . SVG Version: 6.00 Build 0)  -->
<svg version="1.1" xmlns="http://www.w3.org/2000/svg" xmlns:xlink="http://www.w3.org/1999/xlink" x="0px" y="0px"
	 viewBox="0 0 126 67" style="enable-background:new 0 0 126 67;" xml:space="preserve">
<path id="elephant" class="st0" d="M53,0.9l-0.2,0.6c-0.2,0.5-0.2,1.1-0.2,1.6v4.2c0,1.2-0.7,1.9-1.8,1.9l-4.2-0.1c-0.5,0-1.1,0.1-1.6,0.2
	l-0.6,0.2h-0.1c0,0,0,0,0-0.1L53,0.9C52.9,0.9,52.9,0.9,53,0.9L53,0.9z M66.3,15.5c0,0,0.1,0,0.1,0.1c0.3,0.1,1,0.2,1.5,0.3
	s1.3,0.6,1.6,0.6c0.1,0,0.1,0,0.1,0c0.1-0.1,0.2-0.2,0.2-0.2c0.2-0.4,0.2-0.9,0-1.4c-0.1-0.2-0.4-0.6-0.6-0.8
	c-0.3-0.2-0.6-0.3-0.9-0.3c-0.4-0.1-0.8,0-1.1,0.2c-0.2,0.1-0.5,0.3-0.6,0.6C66.3,15,66.3,15.2,66.3,15.5
	C66.3,15.5,66.3,15.5,66.3,15.5z M65.6,26.8c0.8,0,1.4,0.7,1.4,1.4c0,0.4-0.1,0.6-0.3,0.9c-0.2,0.2-0.4,0.4-0.7,0.5
	c-0.9,0.3-1.3,1.1-1.2,1.8c0,0.3,0.2,0.7,0.5,1.1c0.1,0.1,0.1,0.1,0.2,0.2c0.4,0.2,0.6,0.3,1,0.3c1.5,0,2.4-1.1,2.4-1.1
	c0.4-0.4,0.7-1,0.8-1.6c0.4-2-0.7-4.7-2.8-5.3c-6.4-1.3-6.5-3.4-6.5-4.4c0-0.1,0-0.1-0.1-0.1s-0.1,0.1-0.1,0.1
	c0.1,1.1-0.8,5.4-4.1,6.1c-3.3,0.6-5.6-0.7-7.7-2.5c-0.7-0.6-1.3-1.3-1.8-2c-1.7-2.2-2.3-4.8-2.4-5.2c-0.2-0.8-0.4-2.5-0.4-4.1
	c0-0.6,0.2-0.9,0.4-1.2s0.6-0.7,1-0.9s0.8-0.3,1.4-0.3h2.9c0.2,0,0.5,0,2,0c1.4,0,2.5-1.2,2.5-2.5c0-2.3,0-3.7,0-4.7
	c0-1.1,0.1-1.5,0.5-2s1.1-0.9,2-1.1c1.7-0.3,3.2-0.3,4.6,0c2.3,0.5,2,2.1,2.9,2.2c1.3,0.3,5.6,0.5,7.1,1.1c0.9,0.4,1.6,0.9,2.3,1.6
	c0.5,0.6,1.3,1.6,1.6,3.2c0.7,4,0.7,9,1.1,12.3c0.7,5.7-0.6,15.1-8.6,16c-2.1,0.2-3.7-0.5-4.7-1.5c-0.9-1-1.4-2.2-1.4-3.6
	c0-0.7,0.2-1.5,0.5-2.1c0.4-0.8,1-1.4,1.8-1.9C64.3,27.2,64.7,27,65.6,26.8C65.5,26.8,65.5,26.8,65.6,26.8z"/>
<path id="title" class="st0" d="M106.6,60.3c0.2,0,0.4,0.2,0.4,0.4c-0.1,0.6-0.3,1.5-0.4,2.3c-0.4,2.3-1.7,3.2-4.1,3.1H98
	c-2.4,0.1-3.6-1-3.6-3.2v-8.1c0-0.2,0.2-0.3,0.3-0.3h8.2c0.2,0,0.3-0.2,0.3-0.3v-4.4c0-0.2-0.2-0.3-0.3-0.3h-8.1
	c-0.2,0-0.3-0.2-0.3-0.3v-1.4c0-0.2,0.2-0.3,0.3-0.3h10.5c0.2,0,0.3,0.2,0.3,0.3v8.5c0,0.2-0.2,0.3-0.3,0.3h-8.2
	c-0.2,0-0.3,0.2-0.3,0.4v5.4c-0.1,1.3,0.5,1.9,2,1.8h3.2c1.3,0.1,2.1-0.4,2.3-1.6c0.1-0.6,0.2-1.3,0.3-1.7c0-0.2,0.2-0.3,0.3-0.3
	L106.6,60.3z M88.9,49.5c-0.5-0.6-0.9-1.1-1.1-1.5c-0.1-0.2-0.1-0.4,0.1-0.5l1.3-0.8c0.1-0.1,0.3-0.1,0.4,0.1c0.2,0.2,0.5,0.6,0.8,1
	c0.8,1,1.5,1.7,1.9,2.3c0.1,0.2,0.1,0.4-0.1,0.5l-1.4,0.9c-0.2,0.1-0.4,0.1-0.5-0.1C90,50.9,89.5,50.3,88.9,49.5z M92.7,61.4l0.8,1
	c0.1,0.2,0.1,0.5-0.1,0.6l-3.5,2.8c-0.2,0.2-0.5,0.1-0.7-0.1l-0.9-1.2c-0.2-0.2-0.1-0.5,0.1-0.7l0.1-0.1c0.1-0.1,0.2-0.2,0.2-0.4
	v-7.4c0-0.3-0.2-0.5-0.5-0.5h-1c-0.3,0-0.5-0.2-0.5-0.5v-1.3c0-0.3,0.2-0.5,0.5-0.5h3.2c0.3,0,0.5,0.2,0.5,0.5v8.1
	c0,0.1,0.2,0.2,0.3,0.1l0.8-0.6C92.3,61.1,92.6,61.2,92.7,61.4z M60.8,63.9c0.2,0.1,0.3,0.4,0.1,0.6s-0.4,0.5-0.7,0.8
	c-0.1,0.1-0.1,0.1-0.2,0.2c-0.1,0.1-0.3,0.2-0.5,0.1c-2.3-1.2-3.8-3-4.7-5.4c-0.1-0.2-0.3-0.3-0.5-0.2s-0.4,0.1-0.5,0.2
	c-0.2,0.1-0.3,0.3-0.3,0.5c0.2,0.7,0.3,1.5,0.3,2.3c0,2.3-1.1,3.5-3.3,3.5c-0.7,0-2.1,0-2.7,0c-0.2,0-0.3-0.1-0.4-0.3l-0.2-0.9
	c-0.1-0.3,0.1-0.5,0.4-0.5c0.5,0,1.2,0.1,2,0.1c1.4-0.1,2.1-0.8,2.1-2.1c0-0.1,0-0.3,0-0.5c0-0.3-0.3-0.5-0.6-0.3l-8.5,3.8
	c-0.2,0.1-0.4,0-0.5-0.2l-0.5-0.8c-0.1-0.2,0-0.5,0.2-0.6l8.9-4c0.2-0.1,0.3-0.4,0.2-0.6l-0.2-0.3c0-0.1-0.1-0.1-0.2-0.1l-8.4,3.6
	c-0.2,0.1-0.4,0-0.5-0.2l-0.4-0.8c-0.1-0.2,0-0.5,0.2-0.6l8.1-3.2h0.1l0.1-0.1v-0.1l-0.1,0l-0.2-0.2l0,0l-0.1-0.1
	c-0.1-0.1-0.3-0.1-0.4-0.1l-7,2.5c-0.2,0.1-0.4,0-0.5-0.2L41,58.8c-0.1-0.2,0-0.5,0.3-0.6l5.9-2c0.2-0.1,0.1-0.3,0-0.3h-4.5
	c-0.2,0-0.4-0.2-0.4-0.4v-2.7L42,53c-0.3-0.3-0.7-0.7-1.1-1.1c-0.2-0.2-0.2-0.5,0.1-0.7c2.5-1.5,4.5-3,5.9-4.8
	c0.1-0.1,0.2-0.2,0.4-0.1l1.6,0.2c0.3,0,0.5,0.4,0.3,0.7c-0.1,0.2-0.3,0.3-0.5,0.5c-0.1,0.1,0,0.3,0.1,0.3h7.5
	c0.2,0,0.4,0.2,0.4,0.4v0.9c0,0.1,0,0.2-0.1,0.3l-1.4,1.2c-0.1,0.1,0,0.3,0.1,0.3h4.1c0.2,0,0.4,0.2,0.4,0.4v4
	c0,0.2-0.2,0.4-0.4,0.4h-1l0.7,0.9c0.2,0.2,0.1,0.5-0.1,0.6l-2.3,1.3c-0.2,0.1-0.3,0.3-0.2,0.5C57.3,61.3,58.7,62.9,60.8,63.9z
	 M57.3,52.5h-4.6c-0.2,0-0.4,0.1-0.4,0.3c-0.1,0.3-0.2,0.7-0.3,0.9c-0.1,0.3,0.1,0.5,0.4,0.5h4.8c0.2,0,0.4-0.2,0.4-0.4v-1
	C57.7,52.7,57.6,52.5,57.3,52.5z M50,53c0.1-0.3-0.1-0.5-0.4-0.5h-4.7c-0.2,0-0.4,0.2-0.4,0.4v1c0,0.2,0.2,0.4,0.4,0.4h4.3
	c0.2,0,0.3-0.1,0.4-0.2C49.8,53.7,49.9,53.4,50,53z M45.4,51h6.4c0.4,0,0.5,0,0.5-0.1l1.3-1.2c0.1-0.1,0-0.3-0.1-0.3H47
	c-0.1,0-0.2,0-0.3,0.1c-0.4,0.4-0.9,0.8-1.4,1.2C45.2,50.8,45.3,51,45.4,51z M53,58.4c2-0.9,3.7-1.7,5.2-2.6h-7h-0.5
	c-0.2,0-0.2,0.2-0.1,0.3c0.8,0.8,1.4,1.5,1.9,2.2C52.6,58.5,52.8,58.5,53,58.4z M83.6,59.9c0.2,0,0.4,0.2,0.4,0.4v1.1
	c0,0.2-0.2,0.4-0.4,0.4l-9.3,0.5c-0.2,0-0.4,0.2-0.4,0.4v0.4c-0.1,1,0.5,1.5,1.8,1.4h3.4c1,0.1,1.5-0.2,1.7-0.9
	c0-0.1,0.1-0.4,0.1-0.6c0-0.2,0.2-0.3,0.4-0.3l1.3-0.1c0.3,0,0.5,0.2,0.4,0.5l-0.3,1.3c0,0-0.4,1.9-3.2,1.9h-4.9
	c-2.2,0.1-3.2-0.9-3.2-3v-0.5c0-0.2-0.2-0.4-0.4-0.4l-7.1,0.4c-0.2,0-0.4-0.2-0.4-0.4l-0.1-1.1c0-0.2,0.2-0.4,0.4-0.4l7.3-0.4
	c0.2,0,0.4-0.2,0.4-0.4v-1c0-0.2-0.2-0.4-0.4-0.4l-5.7,0.2c-0.2,0-0.4-0.2-0.4-0.4l-0.1-1c0-0.2,0.2-0.4,0.4-0.4l5.8-0.3
	c0.2,0,0.4-0.2,0.4-0.4v-0.9c0-0.2-0.2-0.4-0.4-0.4l-5.4,0.2c-0.2,0-0.4-0.1-0.4-0.3l-0.2-1.1c0-0.2,0.1-0.5,0.4-0.5l16.2-0.8
	c0.2,0,0.4,0.2,0.4,0.4v1.1c0,0.2-0.2,0.4-0.4,0.4c-1.2,0.1-5.1,0.3-7.5,0.4c-0.2,0-0.4,0.2-0.4,0.4v1c0,0.2,0.2,0.4,0.4,0.4
	l7.3-0.4c0.2,0,0.4,0.2,0.4,0.4v1.1c0,0.2-0.2,0.4-0.4,0.4l-7.4,0.3c-0.2,0-0.4,0.2-0.4,0.4V60c0,0.2,0.2,0.4,0.4,0.4L83.6,59.9z
	 M73.5,51.9c-0.2-0.1-0.3-0.4-0.1-0.6c1.2-1.6,2.2-3.2,2.7-4.8c0.1-0.2,0.3-0.3,0.4-0.3l1.2,0.2c0.4,0.1,0.6,0.3,0.4,0.6
	c-0.1,0.2-0.2,0.4-0.2,0.6c-0.1,0.3,0.1,0.6,0.4,0.6h4.9c0.2,0,0.4,0.2,0.4,0.4v1c0,0.2-0.2,0.4-0.4,0.4h-3.1
	c-0.1,0-0.2,0.1-0.1,0.3l0.8,1.1c0.2,0.2,0.1,0.5-0.2,0.6l-1.1,0.3c-0.2,0.1-0.4,0-0.5-0.2l-1.2-1.9c-0.1-0.1-0.2-0.2-0.4-0.2h-0.5
	c-0.2,0-0.3,0.1-0.4,0.2c-0.4,0.8-0.9,1.6-1.5,2.4c-0.1,0.2-0.4,0.2-0.6,0.1C74.2,52.4,73.9,52.1,73.5,51.9z M64.6,52.8
	c-0.3-0.3-0.6-0.7-0.9-1c-0.1-0.2-0.1-0.4,0-0.5c1.3-1.4,2.3-3,3-4.7c0.1-0.2,0.2-0.3,0.4-0.3l1.4,0.2c0.3,0,0.4,0.3,0.3,0.5
	s-0.2,0.4-0.2,0.6c-0.1,0.3,0.1,0.6,0.4,0.6h4.3c0.2,0,0.4,0.2,0.4,0.4v1c0,0.2-0.2,0.4-0.4,0.4h-2.7c-0.1,0-0.2,0.1-0.1,0.2
	l0.8,1.4c0.1,0.2,0,0.5-0.2,0.6l-1,0.3c-0.2,0.1-0.4,0-0.5-0.2c-0.3-0.5-0.8-1.6-1.1-2.1c-0.1-0.1-0.2-0.2-0.4-0.2h-0.5
	c-0.1,0-0.3,0.1-0.3,0.2c-0.5,0.9-1.2,1.8-2.1,2.7C65,53,64.7,53,64.6,52.8z M36.5,47.7c0.2,0,0.4,0.2,0.4,0.4v12.4
	c0.1,1.9-0.9,2.9-2.7,2.9c-0.1,0-1.7,0-2.4,0c-0.2,0-0.4-0.1-0.4-0.3l-0.3-1.3c-0.1-0.3,0.1-0.5,0.4-0.5c0.6,0,1.7,0,1.8,0
	c1,0,1.4-0.4,1.4-1.3v-9.6c0-0.2-0.2-0.4-0.4-0.4h-3.7c-0.2,0-0.4,0.2-0.4,0.4v16c0,0.2-0.2,0.4-0.4,0.4h-1.4
	c-0.2,0-0.4-0.2-0.4-0.4V48.1c0-0.2,0.2-0.4,0.4-0.4C28.4,47.7,36.5,47.7,36.5,47.7z M25.9,60.4c0.3-0.1,0.5,0.1,0.5,0.4l0.1,1.4
	c0,0.2-0.1,0.4-0.3,0.4l-6.5,2.2c-0.2,0.1-0.4,0-0.5-0.2l-0.7-1.5c0-0.1,0-0.1,0-0.2V48.5c0-0.2,0.1-0.4,0.3-0.4l6.8-1.5
	c0.2,0,0.4,0.1,0.5,0.3l0.4,1.4c0.1,0.2-0.1,0.5-0.3,0.5l-5.1,1c-0.2,0-0.3,0.2-0.3,0.4v3.6c0,0.2,0.2,0.4,0.4,0.4H26
	c0.2,0,0.4,0.2,0.4,0.4v1.3c0,0.2-0.2,0.4-0.4,0.4h-4.8c-0.2,0-0.4,0.2-0.4,0.4v4.6c0,0.3,0.3,0.5,0.5,0.4L25.9,60.4z"/>
</svg>
